<svg width="10" height="7" viewBox="0 0 10 7" fill="none" xmlns="http://www.w3.org/2000/svg">
<path d="M7.93603 1.3712V5.84862C7.93603 5.99705 7.87707 6.13941 7.77211 6.24437C7.66715 6.34933 7.52479 6.4083 7.37636 6.4083H6.81668C6.66824 6.4083 6.52589 6.34933 6.42093 6.24437C6.31597 6.13941 6.257 5.99705 6.257 5.84862V3.88975H4.57797V5.84862C4.57797 5.99705 4.519 6.13941 4.41404 6.24437C4.30908 6.34933 4.16673 6.4083 4.01829 6.4083H3.45862C3.31018 6.4083 3.16782 6.34933 3.06286 6.24437C2.9579 6.13941 2.89894 5.99705 2.89894 5.84862V1.3712C2.89894 1.22277 2.9579 1.08041 3.06286 0.975449C3.16782 0.870489 3.31018 0.811523 3.45862 0.811523H4.01829C4.16673 0.811523 4.30908 0.870489 4.41404 0.975449C4.519 1.08041 4.57797 1.22277 4.57797 1.3712V3.33007H6.257V1.3712C6.257 1.22277 6.31597 1.08041 6.42093 0.975449C6.52589 0.870489 6.66824 0.811523 6.81668 0.811523H7.37636C7.52479 0.811523 7.66715 0.870489 7.77211 0.975449C7.87707 1.08041 7.93603 1.22277 7.93603 1.3712ZM2.19934 1.65104H2.05942C1.91099 1.65104 1.76863 1.71001 1.66367 1.81497C1.55871 1.91992 1.49975 2.06228 1.49975 2.21072V3.33007H1.22935C1.15704 3.329 1.087 3.35536 1.03333 3.40384C0.979659 3.45232 0.946338 3.51932 0.940068 3.59137C0.937526 3.62965 0.942882 3.66804 0.955803 3.70416C0.968724 3.74028 0.988933 3.77336 1.01518 3.80134C1.04142 3.82933 1.07314 3.85161 1.10835 3.86682C1.14357 3.88203 1.18154 3.88983 1.21991 3.88975H1.49975V5.0091C1.49975 5.15754 1.55871 5.29989 1.66367 5.40485C1.76863 5.50981 1.91099 5.56878 2.05942 5.56878H2.19934C2.23645 5.56878 2.27204 5.55404 2.29828 5.5278C2.32452 5.50156 2.33926 5.46597 2.33926 5.42886V1.79096C2.33926 1.75385 2.32452 1.71826 2.29828 1.69202C2.27204 1.66578 2.23645 1.65104 2.19934 1.65104ZM9.8949 3.59137C9.88864 3.51944 9.85542 3.45254 9.8019 3.40408C9.74838 3.35562 9.67852 3.32918 9.60632 3.33007H9.33523V2.21072C9.33523 2.06228 9.27626 1.91992 9.1713 1.81497C9.06634 1.71001 8.92399 1.65104 8.77555 1.65104H8.63563C8.59852 1.65104 8.56293 1.66578 8.53669 1.69202C8.51045 1.71826 8.49571 1.75385 8.49571 1.79096V5.42886C8.49571 5.46597 8.51045 5.50156 8.53669 5.5278C8.56293 5.55404 8.59852 5.56878 8.63563 5.56878H8.77555C8.92399 5.56878 9.06634 5.50981 9.1713 5.40485C9.27626 5.29989 9.33523 5.15754 9.33523 5.0091V3.88975H9.61507C9.65343 3.88983 9.6914 3.88203 9.72662 3.86682C9.76184 3.85161 9.79355 3.82933 9.8198 3.80134C9.84604 3.77336 9.86625 3.74028 9.87917 3.70416C9.89209 3.66804 9.89745 3.62965 9.8949 3.59137Z" fill="#2196F3"/>
</svg>
