<svg width="88" height="145" viewBox="0 0 88 145" fill="none" xmlns="http://www.w3.org/2000/svg">
<path d="M0 43.7812C0 19.6015 19.6015 0 43.7812 0H87.5625C87.5625 24.1797 67.961 43.7812 43.7812 43.7812H0Z" fill="#0070F0"/>
<path d="M0 100.697C0 76.2753 19.7976 56.4778 44.2191 56.4778H87.5625C87.5625 80.8993 67.7649 100.697 43.3434 100.697H0Z" fill="#0070F0"/>
<path d="M0.00163651 144.04C24.4232 144.04 44.2207 124.243 44.2207 99.8212V56.4778C19.7992 56.4778 0.00163651 76.2753 0.00163651 100.697V144.04Z" fill="#0070F0"/>
<path fill-rule="evenodd" clip-rule="evenodd" d="M50.7877 96.4854L36.3398 96.3186V106.033L43.5638 106.211L43.6681 106.213C44.585 102.936 47.3612 100.434 50.7877 99.9189V96.4854Z" fill="#0070F0"/>
</svg>
